**ABCDEFGHIJKLMNOPQRSTUVWXYZabcdefghijklmnopqrstuvwxyz**************************
**PARASOLID !"#$%&'()*+,-./:;<=>?@[\]^_`{|}~0123456789**************************
**PART1;
MC=AMD64;
MC_MODEL=Intel64 Family 6 Model 158 Stepping 9, GenuineIntel;
MC_ID=unknown;
OS=Windows_NT;
OS_RELEASE=unknown;
FRU=Parasolid Version 32.1, build 255,  1- 1-2021;
APPL=SOLIDWORKS 2021-2021166;
SITE=;
USER=unknown;
FORMAT=text;
GUISE=transmit;
KEY=specchi;
FILE=specchi.x_t;
DATE=Wed Oct 19 14:52:32 2022;
**PART2;
SCH=SCH_3201255_32001;
USFLD_SIZE=0;
**PART3;
**END_OF_HEADER*****************************************************************
T51 : TRANSMIT FILE created by modeller version 320125523 SCH_3201255_32001_1300
6229 0 12 34 CCCCCCI4 mesh1006 0 I8 polyline1008 0 CCCCCCCDI5 owner1040 0 CCCCCC
I13 boundary_mesh1006 0 I17 boundary_polyline1008 0 CCCA16 index_map_offset0 0 1
 dA9 index_map82 0 A17 node_id_index_map82 0 A20 schema_embedding_map82 0 A5 chi
ld12 0 A14 lowest_node_id0 0 1 dA16 mesh_offset_data206 0 Z1 1025 2 3 0 0 0 0 0
 0 1e3 1e-8 0 4 0 1 0 1 1 5 6 7 8 0 0 9 10 11 0 0 0 0 0 0 0 81 255 2 2 1009 12 1
 13 0 0 0 0 14 70 11 CI9 list_type0 0 1 uI10 notransmit0 0 1 lCCCDCCDI12 finger_
index0 0 1 dI12 finger_block1012 0 CZ3 0 4 T1 0 0 8 20 1 15 15 13 255 5 309 0 1
 0 16 0 0 17 0 50 255 6 294 0 16 18 0 0 +-.117050914430896 -.04407596425884365 .
17 1 0 0 0 0 -1 30 255 7 308 0 10 19 0 0 +-.117050914430896 -.0540759642588437 .
17 0 0 -1 29 255 8 225 0 20 21 0 -.117050914430896 -.04407596425884365 0 19 8 CC
CCCCCA5 owner12 0 Z9 103 0 1 17 0 22 V0 16 255 10 252 0 ?23 0 24 7 0 0 1 18 255
 11 100 0 25 0 26 27 ?1 17 255 25 0 28 29 30 11 31 32 0 33 +18 26 97 0 30 11 34
 35 ?1 29 27 102 0 11 35 36 -.117050914430896 -.04407596425884365 .17 29 35 99 0
 26 37 27 .04124066831236825 -.0440759642588436 .17 29 36 238 0 38 27 39 -.11705
0914430896 -.0540759642588437 0 18 38 209 0 40 41 0 36 ?1 29 39 237 0 41 36 42 .
044837392927817 -.0540759642588436 0 18 41 208 0 43 44 38 39 ?1 29 42 236 0 44 3
9 45 .1298556922828202 .01616866340496235 0 18 44 207 0 46 47 41 42 ?1 29 45 235
 0 47 42 48 .1298556922828202 .0997057102097541 0 18 47 206 0 49 50 44 45 ?1 29
 48 234 0 50 45 51 .0663886519023622 .170626738459682 0 18 50 205 0 52 53 47 48
 ?1 29 51 233 0 53 48 54 -.0872594677296721 .170626738459682 0 18 53 204 0 55 56
 50 51 ?1 29 54 232 0 56 51 57 -.1815877113046285 .00724542799912276 0 18 56 203
 0 58 59 53 54 ?1 29 57 231 0 59 54 60 -.172927457266784 .00224542799912277 0 18
 59 202 0 61 62 56 57 ?1 29 60 230 0 62 57 63 -.0814859650377759 .16062673845968
2 0 18 62 201 0 64 65 59 60 ?1 29 63 229 0 65 60 66 .0619180826930596 .160626738
459682 0 18 65 200 0 67 68 62 63 ?1 29 66 228 0 68 63 69 .1198556922828202 .0958
845538262562 0 18 68 199 0 70 71 65 66 ?1 29 69 227 0 71 66 21 .1198556922828202
 .02087808833313645 0 18 71 198 0 72 73 68 69 ?1 29 21 226 0 73 69 8 .0412406683
1236825 -.0440759642588436 0 18 73 197 0 74 20 71 21 ?1 17 74 0 75 76 77 73 78 7
9 0 80 +18 20 196 0 81 82 73 8 ?1 17 81 0 83 33 80 20 84 85 0 86 +18 82 61 0 87
 88 20 89 ?1 17 87 0 90 23 91 82 92 93 0 29 -18 88 64 0 92 94 82 95 ?1 29 89 63
 0 82 0 95 -.117050914430896 -.0540759642588437 .17 29 95 66 0 88 89 96 .0448373
92927817 -.0540759642588436 .17 29 96 69 0 94 95 97 .1298556922828202 .016168663
40496235 .17 18 94 67 0 98 99 88 96 ?1 29 97 72 0 99 96 100 .1298556922828202 .0
997057102097541 .17 18 99 70 0 101 102 94 97 ?1 29 100 75 0 102 97 103 .06638865
19023622 .170626738459682 .17 18 102 73 0 104 105 99 100 ?1 29 103 78 0 105 100
 106 -.0872594677296721 .170626738459682 .17 18 105 76 0 107 108 102 103 ?1 29 1
06 81 0 108 103 109 -.1815877113046285 .00724542799912276 .17 18 108 79 0 110 11
1 105 106 ?1 29 109 84 0 111 106 112 -.172927457266784 .00224542799912277 .17 18
 111 82 0 113 114 108 109 ?1 29 112 87 0 114 109 115 -.0814859650377759 .1606267
38459682 .17 18 114 85 0 116 117 111 112 ?1 29 115 90 0 117 112 118 .06191808269
30596 .160626738459682 .17 18 117 88 0 119 120 114 115 ?1 29 118 93 0 120 115 37
 .1198556922828202 .0958845538262562 .17 18 120 91 0 121 34 117 118 ?1 29 37 96
 0 34 118 35 .1198556922828202 .02087808833313645 .17 18 34 94 0 122 26 120 37 ?
1 17 122 0 28 30 121 34 123 124 0 125 +15 255 28 4 0 29 126 0 17 30 0 28 25 122
 26 127 128 0 76 +17 121 0 28 122 119 120 129 130 0 131 +17 123 0 132 133 125 12
0 122 124 0 0 -16 124 49 0 ?122 128 130 134 0 0 1 17 125 0 132 123 72 34 77 135
 0 127 -15 132 257 0 72 136 0 17 72 0 132 125 133 71 137 138 0 77 +17 77 0 75 74
 127 71 125 135 0 78 +16 135 241 0 ?77 139 140 141 0 0 1 17 127 0 75 77 76 34 30
 128 0 0 -15 75 255 0 74 142 0 17 76 0 75 127 74 26 80 140 0 31 -16 128 53 0 ?30
 32 124 143 0 0 1 16 32 57 0 ?25 144 128 145 0 0 1 30 143 55 0 128 134 145 0 +.0
4124066831236825 -.0440759642588436 .17 -.770907789574706 -.636946763845331 0 30
 134 51 0 124 146 143 0 +.1198556922828202 .02087808833313645 .17 0 -1 0 30 145
 59 0 32 143 147 0 +-.117050914430896 -.04407596425884365 .17 -1 -52603382570214
4e-30 0 30 147 224 0 148 145 149 0 +-.117050914430896 -.04407596425884365 0 0 -1
 0 16 148 192 0 ?150 151 0 147 0 0 1 30 149 223 0 151 147 152 0 +-.1170509144308
96 -.0540759642588437 0 1 514346762934421e-30 0 16 151 188 0 ?43 153 148 149 0 0
 1 30 152 222 0 153 149 154 0 +.044837392927817 -.0540759642588436 0 .7709077895
74707 .636946763845331 0 16 153 184 0 ?46 155 151 152 0 0 1 30 154 221 0 155 152
 156 0 +.1298556922828202 .01616866340496235 0 0 1 0 16 155 180 0 ?49 157 153 15
4 0 0 1 30 156 220 0 157 154 158 0 +.1298556922828202 .0997057102097541 0 -.6668
61285846043 .745181874068178 0 16 157 176 0 ?52 159 155 156 0 0 1 30 158 219 0 1
59 156 160 0 +.0663886519023622 .170626738459682 0 -1 -180643770207534e-30 0 16
 159 172 0 ?55 161 157 158 0 0 1 30 160 218 0 161 158 162 0 +-.0872594677296721
 .170626738459682 0 -.5 -.866025403784442 0 16 161 168 0 ?58 163 159 160 0 0 1 3
0 162 217 0 163 160 164 0 +-.172927457266784 .00224542799912277 0 .8660254037844
4 -.5 0 16 163 164 0 ?61 165 161 162 0 0 1 30 164 216 0 165 162 166 0 +-.0814859
650377759 .160626738459682 0 .5 .866025403784442 0 16 165 160 0 ?64 167 163 164
 0 0 1 30 166 215 0 167 164 168 0 +.0619180826930596 .160626738459682 0 1 193548
062658072e-30 0 16 167 156 0 ?67 169 165 166 0 0 1 30 168 214 0 169 166 170 0 +.
1198556922828202 .0958845538262562 0 .666861285846043 -.745181874068178 0 16 169
 152 0 ?70 138 167 168 0 0 1 30 170 213 0 138 168 171 0 +.1198556922828202 .0208
7808833313645 0 0 -1 0 16 138 148 0 ?72 79 169 170 0 0 1 30 171 212 0 79 170 172
 0 +.04124066831236825 -.0440759642588436 0 -.770907789574706 -.636946763845331
 0 16 79 144 0 ?74 85 138 171 0 0 1 30 172 211 0 85 171 173 0 +-.117050914430896
 -.04407596425884365 0 -1 -526033825702144e-30 0 16 85 140 0 ?81 174 79 172 0 0
 1 30 173 295 0 144 172 175 0 +-.117050914430896 -.04407596425884365 .17 0 0 -1
 16 144 239 0 ?86 140 32 173 0 0 1 30 175 296 0 140 173 141 0 +.0412406683123682
5 -.0440759642588436 .17 0 0 -1 16 140 240 0 ?80 135 144 175 0 0 1 30 141 297 0
 135 175 176 0 +.1198556922828202 .02087808833313645 .17 0 0 -1 30 176 298 0 139
 141 177 0 +.1198556922828202 .0958845538262562 .17 0 0 -1 16 139 242 0 ?133 178
 135 176 0 0 1 30 177 299 0 178 176 179 0 +.0619180826930596 .160626738459682 .1
7 0 0 -1 16 178 243 0 ?180 181 139 177 0 0 1 30 179 300 0 181 177 182 0 +-.08148
59650377759 .160626738459682 .17 0 0 -1 16 181 244 0 ?183 184 178 179 0 0 1 30 1
82 301 0 184 179 185 0 +-.172927457266784 .00224542799912277 .17 0 0 -1 16 184 2
45 0 ?186 187 181 182 0 0 1 30 185 302 0 187 182 188 0 +-.1815877113046285 .0072
4542799912276 .17 0 0 -1 16 187 246 0 ?189 190 184 185 0 0 1 30 188 303 0 190 18
5 191 0 +-.0872594677296721 .170626738459682 .17 0 0 -1 16 190 247 0 ?192 193 18
7 188 0 0 1 30 191 304 0 193 188 194 0 +.0663886519023622 .170626738459682 .17 0
 0 -1 16 193 248 0 ?195 196 190 191 0 0 1 30 194 305 0 196 191 197 0 +.129855692
2828202 .0997057102097541 .17 0 0 -1 16 196 249 0 ?198 199 193 194 0 0 1 30 197
 306 0 199 194 19 0 +.1298556922828202 .01616866340496235 .17 0 0 -1 16 199 250
 0 ?200 24 196 197 0 0 1 30 19 307 0 24 197 7 0 +.044837392927817 -.054075964258
8436 .17 0 0 -1 16 24 251 0 ?201 10 199 19 0 0 1 17 201 0 202 46 203 41 91 24 0
 204 +15 202 275 0 46 205 0 17 46 0 202 206 201 44 204 153 0 200 +17 203 0 202 2
01 206 88 98 207 0 0 -17 91 0 90 87 43 88 201 24 0 203 -17 204 0 208 40 209 41 4
6 153 0 0 -15 208 139 0 210 211 0 17 40 0 208 210 204 38 43 151 0 23 -17 209 0 2
08 204 212 44 49 155 0 0 -17 212 0 208 209 213 47 52 157 0 0 -17 49 0 214 215 20
0 47 209 155 0 198 +15 214 273 0 49 216 0 17 215 0 214 217 49 99 198 196 0 218 -
17 200 0 214 49 217 44 206 199 0 209 +17 198 0 219 52 218 47 215 196 0 212 +15 2
19 271 0 52 220 0 17 52 0 219 221 198 50 212 157 0 195 +17 218 0 219 198 221 99
 104 222 0 0 -17 221 0 219 218 52 102 195 193 0 223 -17 104 0 28 107 101 102 218
 222 0 221 +16 222 21 0 ?104 224 225 226 0 0 1 16 224 25 0 ?107 227 222 228 0 0
 1 16 225 17 0 ?101 222 207 229 0 0 1 30 226 23 0 222 229 228 0 +.12985569228282
02 .0997057102097541 .17 -.666861285846043 .745181874068178 0 30 229 19 0 225 23
0 226 0 +.1298556922828202 .01616866340496235 .17 0 1 0 30 228 27 0 224 226 231
 0 +.0663886519023622 .170626738459682 .17 -1 -180643770207534e-30 0 30 231 31 0
 227 228 232 0 +-.0872594677296721 .170626738459682 .17 -.5 -.866025403784442 0
 16 227 29 0 ?110 233 224 231 0 0 1 30 232 35 0 233 231 234 0 +-.172927457266784
 .00224542799912277 .17 .86602540378444 -.5 0 16 233 33 0 ?113 235 227 232 0 0 1
 30 234 39 0 235 232 236 0 +-.0814859650377759 .160626738459682 .17 .5 .86602540
3784442 0 16 235 37 0 ?116 237 233 234 0 0 1 30 236 43 0 237 234 146 0 +.0619180
826930596 .160626738459682 .17 1 193548062658072e-30 0 16 237 41 0 ?119 130 235
 236 0 0 1 30 146 47 0 130 236 134 0 +.1198556922828202 .0958845538262562 .17 .6
66861285846043 -.745181874068178 0 16 130 45 0 ?121 124 237 146 0 0 1 17 119 0 2
8 121 116 117 238 237 0 239 +17 116 0 28 119 113 114 240 235 0 241 +17 238 0 242
 183 239 114 119 237 0 0 -17 239 0 242 238 67 117 180 178 0 129 -15 242 261 0 67
 243 0 17 67 0 242 239 183 65 244 167 0 180 +17 180 0 245 70 129 65 239 178 0 24
6 +17 129 0 245 180 131 117 121 130 0 0 -15 245 259 0 70 247 0 17 131 0 245 129
 70 120 133 139 0 123 -17 70 0 245 131 180 68 246 169 0 133 +17 133 0 132 72 123
 68 131 139 0 137 +17 137 0 208 246 78 68 72 138 0 0 -17 246 0 208 244 137 65 70
 169 0 0 -17 78 0 208 137 84 71 74 79 0 0 -17 84 0 208 78 210 73 81 85 0 0 -17 2
10 0 208 84 40 20 150 148 0 0 -17 150 0 248 249 86 38 210 148 0 0 +15 248 279 0
 150 16 0 17 249 0 248 250 150 82 23 10 0 0 -17 86 0 248 150 250 20 33 144 0 210
 +17 250 0 248 86 249 11 29 174 0 0 -17 33 0 83 31 81 11 86 144 0 250 -15 83 253
 0 81 251 0 17 31 0 83 80 33 26 25 32 0 0 -17 80 0 83 81 31 73 76 140 0 84 +14 2
55 251 254 252 ?126 142 83 5 253 -0 0 126 142 22 81 1 252 1010 254 251 255 0 0 2
56 257 14 126 1 256 ?211 251 28 5 258 +0 0 211 251 22 14 142 256 259 ?251 136 75
 5 260 -0 0 251 136 22 50 253 281 0 251 261 260 0 +-.117050914430896 -.044075964
25884365 .17 526033825702144e-30 -1 0 1 526033825702144e-30 0 13 22 104 0 0 0 0
 0 0 9 16 14 16 280 262 ?263 0 248 5 6 -0 0 263 0 22 81 1 262 1013 254 16 264 0
 259 265 266 14 263 278 265 ?205 16 90 5 18 -0 0 205 16 22 81 1 265 1014 254 263
 267 0 262 268 269 14 205 276 268 ?216 263 202 5 270 -0 0 216 263 22 15 90 277 0
 43 263 0 50 18 293 0 263 270 6 0 +-.117050914430896 -.0540759642588437 .17 -514
346762934421e-30 1 0 -1 -514346762934421e-30 0 50 270 292 0 205 271 18 0 +.04483
7392927817 -.0540759642588436 .17 -.636946763845331 .770907789574706 0 -.7709077
89574707 -.636946763845331 0 50 271 291 0 216 272 270 0 +.1298556922828202 .0161
6866340496235 .17 -1 0 0 0 0 1 14 216 274 273 ?220 205 214 5 271 -0 0 220 205 22
 50 272 290 0 220 274 271 0 +.1298556922828202 .0997057102097541 .17 -.745181874
068178 -.666861285846043 0 .666861285846043 -.745181874068178 0 14 220 272 275 ?
276 216 219 5 272 -0 0 276 216 22 50 274 289 0 276 277 272 0 +.0663886519023622
 .170626738459682 .17 180643770207534e-30 -1 0 1 180643770207534e-30 0 14 276 27
0 278 ?279 220 280 5 274 -0 0 279 220 22 50 277 288 0 279 281 274 0 +-.087259467
7296721 .170626738459682 .17 .866025403784442 -.5 0 .5 .866025403784442 0 14 279
 268 282 ?283 276 284 5 277 -0 0 283 276 22 50 281 287 0 283 285 277 0 +-.172927
457266784 .00224542799912277 .17 .5 .86602540378444 0 -.86602540378444 .5 0 14 2
83 266 286 ?287 279 288 5 281 -0 0 287 279 22 50 285 286 0 287 289 281 0 +-.0814
859650377759 .160626738459682 .17 -.866025403784442 .5 0 -.5 -.866025403784442 0
 14 287 264 290 ?243 283 291 5 285 -0 0 243 283 22 50 289 285 0 243 292 285 0 +.
0619180826930596 .160626738459682 .17 -193548062658072e-30 1 0 -1 -1935480626580
72e-30 0 14 243 262 293 ?247 287 242 5 289 -0 0 247 287 22 50 292 284 0 247 294
 289 0 +.1198556922828202 .0958845538262562 .17 .745181874068178 .66686128584604
3 0 -.666861285846043 .745181874068178 0 14 247 260 295 ?136 243 245 5 292 -0 0
 136 243 22 50 294 283 0 136 260 292 0 +.1198556922828202 .02087808833313645 .17
 1 0 0 0 0 -1 14 136 258 296 ?142 247 132 5 294 -0 0 142 247 22 50 260 282 0 142
 253 294 0 +.04124066831236825 -.0440759642588436 .17 .636946763845331 -.7709077
89574707 0 .770907789574707 .636946763845331 0 81 1 296 1024 254 136 297 0 295 2
98 299 80 255 1 254 300 301 9000 1 1 1 1 1 1 1 1 0 FFFFTFTFFFFFFF1 81 1 297 971
 302 136 0 296 303 304 305 81 1 295 1023 254 247 303 0 293 296 306 81 1 298 1025
 254 211 307 0 296 0 308 82 255 1 299 537460839 14 211 138 298 ?0 126 208 5 261
 -0 0 0 126 22 81 1 307 975 302 211 0 298 309 0 310 82 1 308 534052967 80 1 302
 0 311 8001 0 0 0 0 3 5 0 0 0 FFFFTFTFFFFFFF2 81 1 309 974 302 126 0 256 255 307
 312 83 255 3 310 .792156862745098 .819607843137255 .933333333333333 81 1 256 10
11 254 126 309 0 252 259 313 81 1 255 973 302 251 0 252 304 309 314 83 3 312 .79
2156862745098 .819607843137255 .933333333333333 81 1 304 972 302 142 0 259 297 2
55 315 83 3 314 .792156862745098 .819607843137255 .933333333333333 81 1 259 1012
 254 142 304 0 256 262 316 83 3 315 .792156862745098 .819607843137255 .933333333
333333 82 1 316 537198695 82 1 313 516620391 79 255 15 311 SDL/TYSA_COLOUR50 261
 210 0 211 258 253 0 +0 0 0 0 0 1 1 0 0 50 258 3 0 126 0 261 0 +0 0 .17 0 0 1 1
 0 0 81 1 303 970 302 247 0 295 317 297 318 81 1 293 1022 254 243 317 0 290 295
 319 82 1 306 537722983 81 1 317 969 302 243 0 293 320 303 321 81 1 290 1021 254
 287 320 0 286 293 322 82 1 319 537985127 81 1 320 968 302 287 0 290 323 317 324
 81 1 286 1020 254 283 323 0 282 290 325 82 1 322 538247271 81 1 323 967 302 283
 0 286 326 320 327 81 1 282 1019 254 279 326 0 278 286 328 82 1 325 538509415 81
 1 326 966 302 279 0 282 329 323 330 81 1 278 1018 254 276 329 0 275 282 331 82
 1 328 538771559 81 1 329 965 302 276 0 278 332 326 333 81 1 275 1017 254 220 33
2 0 273 278 334 82 1 331 539033703 81 1 332 964 302 220 0 275 335 329 336 81 1 2
73 1016 254 216 335 0 268 275 337 82 1 334 539295847 81 1 335 963 302 216 0 273
 338 332 339 81 1 268 1015 254 205 338 0 265 273 340 82 1 337 539557991 81 1 338
 962 302 205 0 268 267 335 341 82 1 340 539820135 81 1 267 961 302 263 0 265 264
 338 342 83 3 341 .792156862745098 .819607843137255 .933333333333333 81 1 264 96
0 302 16 0 262 0 267 343 83 3 342 .792156862745098 .819607843137255 .93333333333
3333 83 3 343 .792156862745098 .819607843137255 .933333333333333 83 3 339 .79215
6862745098 .819607843137255 .933333333333333 83 3 336 .792156862745098 .81960784
3137255 .933333333333333 83 3 333 .792156862745098 .819607843137255 .93333333333
3333 83 3 330 .792156862745098 .819607843137255 .933333333333333 83 3 327 .79215
6862745098 .819607843137255 .933333333333333 83 3 324 .792156862745098 .81960784
3137255 .933333333333333 83 3 321 .792156862745098 .819607843137255 .93333333333
3333 83 3 318 .792156862745098 .819607843137255 .933333333333333 83 3 305 .79215
6862745098 .819607843137255 .933333333333333 79 14 301 SWEntUnchanged15 291 263
 0 64 287 0 17 64 0 291 241 186 62 344 165 0 183 +17 241 0 291 240 64 114 183 18
1 0 238 -17 186 0 291 64 240 59 345 184 0 344 +17 344 0 208 346 244 59 64 165 0
 0 -17 183 0 242 67 238 62 241 181 0 244 +17 244 0 208 344 246 62 67 167 0 0 -17
 346 0 208 347 344 56 61 163 0 0 -17 347 0 208 213 346 53 58 161 0 0 -17 61 0 28
8 345 189 59 346 163 0 186 +15 288 265 0 61 283 0 17 345 0 288 348 61 111 186 18
4 0 240 -17 189 0 288 61 348 56 349 187 0 346 +17 348 0 288 189 345 108 113 233
 0 0 -17 349 0 284 350 58 108 189 187 0 348 -15 284 267 0 58 279 0 17 350 0 284
 192 349 105 110 227 0 0 -17 58 0 284 349 192 56 347 161 0 189 +17 192 0 284 58
 350 53 351 190 0 347 +17 351 0 280 223 55 105 192 190 0 350 -15 280 269 0 55 27
6 0 17 223 0 280 195 351 102 107 224 0 0 -17 55 0 280 351 195 53 213 159 0 192 +
17 195 0 280 55 223 50 221 193 0 213 +17 213 0 208 212 347 50 55 159 0 0 -17 107
 0 28 110 104 105 223 224 0 351 +17 110 0 28 113 107 108 350 227 0 349 +17 113 0
 28 116 110 111 348 233 0 345 +17 240 0 291 186 241 111 116 235 0 0 -17 43 0 90
 91 23 41 40 151 0 201 +17 23 0 90 43 87 38 249 10 0 150 +82 1 269 540082279 82
 1 266 540344423 82 1 257 536936551 17 29 0 28 92 25 82 250 174 0 249 +16 174 5
 0 ?29 93 85 352 0 0 1 16 93 9 0 ?92 207 174 353 0 0 1 30 352 7 0 174 0 353 0 +-
.117050914430896 -.04407596425884365 .17 0 -1 0 30 353 11 0 93 352 230 0 +-.1170
50914430896 -.0540759642588437 .17 1 514346762934421e-30 0 30 230 15 0 207 353 2
29 0 +.044837392927817 -.0540759642588436 .17 .770907789574707 .636946763845331
 0 16 207 13 0 ?98 225 93 230 0 0 1 17 98 0 28 101 92 94 203 207 0 206 +17 101 0
 28 104 98 99 217 225 0 215 +17 92 0 28 98 29 88 87 93 0 91 +17 206 0 202 203 46
 94 200 199 0 217 -17 217 0 214 200 215 94 101 225 0 0 -19 17 310 0 1 0 9 5 S0 7
4 4 CI16 index_map_offset0 0 1 dCCZ20 15 8 0 0 354 355 298 356 357 13 307 2 0 0
 0 0 0 0 0 0 0 0 0 0 81 2 354 374 358 1 0 355 0 0 0 359 81 2 355 378 360 1 354 3
56 0 0 0 361 81 1 356 395 362 1 355 357 0 0 363 81 2 357 396 364 1 356 13 0 0 0
 0 81 2 13 533 365 1 357 2 0 0 0 366 80 2 365 367 368 9000 0 0 0 0 3 5 0 0 0 FFT
FFFFFFFFFFF9 1 82 1 366 1 79 24 368 BODY_IN_LIGHTWEIGHT_PERM80 2 364 369 370 900
0 0 0 0 0 3 5 0 0 0 FFTFFFFFFFFFFF9 1 79 16 370 BODY_RECIPE_200180 1 362 371 372
 9000 1 1 1 1 1 1 1 1 0 FFTFFFFFFFFFFF1 82 1 363 270025 79 10 372 BODY_MATCH80 2
 360 373 374 9000 0 0 0 0 3 5 0 0 0 FFTFFFFFFFFFFF9 1 82 1 361 74 79 30 374 LAST
_BODY_MODIFYING_FEATURE_ID80 2 358 375 376 9000 0 0 0 0 3 5 0 0 0 FFTFFFFFFFFFFF
9 1 82 1 359 103 79 19 376 ENT_TIME_STAMP_200180 2 12 377 378 9000 0 0 0 0 3 5 0
 0 0 FFTFFFFFFFFFFF9 1 82 1 14 101 79 12 378 ATOM_ID_20011 0 
